<svg width="87" height="75" viewBox="0 0 87 75" fill="none" xmlns="http://www.w3.org/2000/svg">
<circle cx="45" cy="43" r="6" fill="#FB8500"/>
<circle cx="65" cy="48" r="5" fill="#8ECAE6"/>
<circle cx="83" cy="53" r="4" fill="#8ECAE6"/>
<circle cx="4" cy="53" r="4" fill="#8ECAE6"/>
<circle cx="24" cy="48" r="5" fill="#8ECAE6"/>
<circle cx="45" cy="6" r="6" fill="#FB8500"/>
<circle cx="65" cy="11" r="5" fill="#8ECAE6"/>
<circle cx="24" cy="11" r="5" fill="#8ECAE6"/>
<circle cx="45" cy="61" r="6" fill="#FB8500"/>
<circle cx="65" cy="66" r="5" fill="#FB8500"/>
<circle cx="83" cy="71" r="4" fill="#FB8500"/>
<circle cx="4" cy="71" r="4" fill="#FB8500"/>
<circle cx="24" cy="66" r="5" fill="#FB8500"/>
<circle cx="45" cy="24" r="6" fill="#FB8500"/>
<circle cx="65" cy="29" r="5" fill="#8ECAE6"/>
<circle cx="83" cy="34" r="4" fill="#8ECAE6"/>
<circle cx="4" cy="34" r="4" fill="#8ECAE6"/>
<circle cx="4" cy="17" r="4" fill="#8ECAE6"/>
<circle cx="83" cy="17" r="4" fill="#8ECAE6"/>
<circle cx="24" cy="29" r="5" fill="#8ECAE6"/>
</svg>
